<svg width="20" height="17" viewBox="0 0 20 17" fill="none" xmlns="http://www.w3.org/2000/svg">
<path d="M5.63441 1C4.44794 1 3.2603 1.44819 2.35583 2.34923C0.546909 4.15132 0.549203 7.08349 2.35583 8.88679L9.31057 15.8285C9.54188 16.0572 9.9592 16.0572 10.1905 15.8285C12.5107 13.5171 14.8316 11.2112 17.1518 8.89983C18.9607 7.09775 18.9607 4.16435 17.1518 2.36227C15.3428 0.560181 12.4036 0.560156 10.5946 2.36227L9.7603 3.19657L8.91298 2.34923C8.00849 1.44819 6.82087 1 5.63441 1V1ZM8.02653 3.23568L9.31708 4.51973C9.54839 4.74843 9.96571 4.74843 10.197 4.51973L11.4811 3.24872C12.8142 1.92065 14.9322 1.92067 16.2653 3.24872C17.5984 4.57677 17.5984 6.67882 16.2653 8.00687C14.0921 10.1718 11.927 12.3404 9.7538 14.5053L3.24228 8.00034C1.90998 6.6705 1.90268 4.56373 3.23582 3.23568C4.65435 1.9531 6.71621 1.89854 8.02653 3.23568V3.23568Z" fill="#A0A2AF" stroke="#A0A2AF"/>
</svg>
