<svg width="17" height="15" viewBox="0 0 17 15" fill="none" xmlns="http://www.w3.org/2000/svg">
<path fill-rule="evenodd" clip-rule="evenodd" d="M15.5329 9.80994C15.4968 9.8752 15.4543 9.93801 15.3989 9.99347L11.4101 14.7276C11.3263 14.8113 11.2287 14.8719 11.1249 14.9116C11.0156 14.9663 10.894 15 10.7635 15H8.99396C8.76584 15 8.56028 14.9054 8.41264 14.7539C8.26119 14.6063 8.16657 14.4007 8.16657 14.1726V11.7391H5.7064C2.55479 11.7391 0 9.18429 0 6.03268V5.7064C0 2.55479 2.55506 0 5.7064 0H11.272C14.4236 0 16.9786 2.55479 16.9786 5.7064V6.03268C16.9786 7.48545 16.428 8.8039 15.5329 9.80994ZM15.0269 5.67894C15.0269 3.62091 13.3588 1.9528 11.3008 1.9528H5.68302C3.62499 1.9528 1.95688 3.62091 1.95688 5.67894V6.07211C1.95688 8.13013 3.62499 9.79825 5.68302 9.79825H9.13291L9.13372 9.80015H9.30583C9.75474 9.80015 10.1185 10.164 10.1185 10.6129V13.0483H10.2646L14.0097 8.60351C14.0296 8.58366 14.0524 8.56871 14.0739 8.55104C14.6639 7.89195 15.0272 7.02621 15.0272 6.07211V5.67894H15.0269Z" fill="#A0A2AF"/>
</svg>
