<svg width="15" height="15" viewBox="0 0 15 15" fill="none" xmlns="http://www.w3.org/2000/svg">
<path fill-rule="evenodd" clip-rule="evenodd" d="M13.1269 13.125H3.75V14.4206C3.75 14.7431 3.48937 15 3.17062 15C3.04125 15 2.92312 14.9606 2.82937 14.8856L0.4125 13.0425V13.0387C0.339375 12.9825 0.27375 12.9131 0.21375 12.8344C-0.140625 12.3544 -0.04125 11.6775 0.440625 11.3175V11.3137L2.82562 9.48937C2.92875 9.41437 3.04125 9.375 3.17062 9.375C3.48937 9.375 3.75 9.63375 3.75 9.95438V11.25H13.1269V7.1475L15 5.70187V11.25C15 12.2888 14.16 13.125 13.1269 13.125ZM14.5913 3.66L12.1725 5.50688C12.0788 5.58375 11.9569 5.625 11.8312 5.625C11.5087 5.625 11.2519 5.36437 11.2519 5.04562V3.75H1.875V7.8525L0 9.29813V3.75C0 2.71313 0.838125 1.875 1.875 1.875H11.2519V0.5775C11.2519 0.25875 11.5087 0 11.8312 0C11.9569 0 12.075 0.04875 12.1687 0.1125L14.5612 1.9425C15.0394 2.29688 15.1444 2.97562 14.7863 3.4575C14.7281 3.53625 14.6644 3.6 14.5913 3.66Z" fill="#A0A2AF"/>
</svg>
