<svg width="23" height="15" viewBox="0 0 23 15" fill="none" xmlns="http://www.w3.org/2000/svg">
<path d="M1.2931 0C0.590144 0 0 0.590147 0 1.2931V13.7069C0 14.4099 0.590144 15 1.2931 15H21.4655C22.1685 15 22.7586 14.4099 22.7586 13.7069V1.2931C22.7586 0.590147 22.1685 0 21.4655 0H1.2931V0ZM2.78017 1.55172H19.9784L11.6541 8.98707C11.5407 9.08842 11.2179 9.08842 11.1045 8.98707L2.78017 1.55172ZM1.55172 2.52962L7.36261 7.72629L1.55172 12.535V2.52962ZM21.2069 2.52962V12.535L15.396 7.72629L21.2069 2.52962ZM8.53448 8.76884L10.07 10.1428C10.8234 10.8161 11.9352 10.8161 12.6886 10.1428L14.2241 8.76884L19.8815 13.4483H2.87716L8.53448 8.76884V8.76884Z" fill="#A0A2AF"/>
</svg>
