<svg width="20" height="15" viewBox="0 0 20 15" fill="none" xmlns="http://www.w3.org/2000/svg">
<path d="M7.44562 0.00345612C7.35579 0.014601 7.27156 0.0531068 7.20435 0.113751L0.145483 6.51085C0.0996808 6.55222 0.0630672 6.60274 0.0380077 6.65914C0.0129481 6.71554 0 6.77657 0 6.83829C0 6.90001 0.0129481 6.96104 0.0380077 7.01744C0.0630672 7.07384 0.0996808 7.12436 0.145483 7.16573L7.20435 13.5628C7.26746 13.62 7.34578 13.6578 7.42986 13.6715C7.51394 13.6851 7.60018 13.6742 7.67818 13.6399C7.75617 13.6057 7.82258 13.5496 7.86939 13.4784C7.91619 13.4072 7.94139 13.324 7.94195 13.2388V11.2535C7.94277 11.1951 7.93197 11.137 7.91017 11.0828C7.88837 11.0285 7.85601 10.9791 7.81496 10.9375C7.77391 10.8959 7.72499 10.8628 7.67106 10.8402C7.61712 10.8177 7.55923 10.8061 7.50077 10.8061C7.4423 10.8061 7.38442 10.8177 7.33048 10.8402C7.27654 10.8628 7.22763 10.8959 7.18658 10.9375C7.14553 10.9791 7.11316 11.0285 7.09136 11.0828C7.06956 11.137 7.05876 11.1951 7.05959 11.2535V12.2393L1.09678 6.84173L7.05959 1.43729V3.97407C7.05954 4.08872 7.10413 4.19889 7.18391 4.28124C7.26368 4.36359 7.37238 4.41165 7.48698 4.41525C13.5693 4.61145 17.7629 9.16292 18.3993 13.4525C16.1322 11.3754 13.3941 9.64847 9.06558 9.32337C9.00763 9.31928 8.94945 9.32665 8.89435 9.34505C8.83926 9.36345 8.78833 9.39253 8.74447 9.43061C8.70061 9.4687 8.66469 9.51505 8.63874 9.56703C8.6128 9.619 8.59735 9.67558 8.59328 9.73352C8.58921 9.79146 8.59659 9.84964 8.615 9.90474C8.63341 9.95983 8.6625 10.0108 8.70059 10.0546C8.73869 10.0985 8.78505 10.1344 8.83703 10.1603C8.88901 10.1862 8.94559 10.2017 9.00353 10.2057C13.664 10.5558 16.2919 12.5032 18.6612 14.8726C18.7229 14.9336 18.8012 14.975 18.8863 14.9917C18.9714 15.0084 19.0596 14.9997 19.1398 14.9666C19.2199 14.9335 19.2886 14.8775 19.3371 14.8056C19.3856 14.7337 19.4119 14.6491 19.4126 14.5624C19.4126 9.53447 14.7734 4.00782 7.94195 3.56736V0.444635C7.94243 0.381754 7.92947 0.319495 7.90393 0.262031C7.8784 0.204567 7.84087 0.153226 7.79387 0.111449C7.74687 0.0696717 7.69148 0.038423 7.63142 0.0197977C7.57136 0.00117245 7.50801 -0.0043991 7.44562 0.00345612V0.00345612ZM7.50077 9.26822C7.25711 9.26822 7.05959 9.46574 7.05959 9.7094C7.05959 9.95306 7.25711 10.1506 7.50077 10.1506C7.74442 10.1506 7.94195 9.95306 7.94195 9.7094C7.94195 9.46574 7.74442 9.26822 7.50077 9.26822Z" fill="#A0A2AF"/>
</svg>
